# xmcd
#
# Track frame offsets: 
#        150
#        16330
#        31515
#        53870
#        68465
#        88687
#        104330
#        128195
#        142315
#        166230
#        181457
#        196420
#        214322
#        229355
#        246732
#        261487
#        290157
#        308325
#
# Disc length: 4389 seconds
#
# Revision: 16
# Processed by: cddbd v1.5.2PL0 Copyright (c) Steve Scherf et al.
# Submitted via: ExactAudioCopyFreeDBPlugin 1.0
#
DISCID=10112312
DTITLE=Various Artist - The Alligator Records 20th Anniversary Collec
DTITLE=tion [CD1,1971-91]
DYEAR=1971
DGENRE=Blues
TTITLE0=Give Me Back My Wig (Hound Dog Taylor) [1971,from'HoundDogTayl
TTITLE0=orAndTheHouseRockers']
TTITLE1=No Cuttin' Loose (James Cotton) [1984,from'HighCompression']
TTITLE2=Black Cat Bone (Albert Collins and Johnny Copeland) [1985,from'S
TTITLE2=howdown!']
TTITLE3=Big Chief (Professor Longhair) [1980,From'CrawfishFiesta']
TTITLE4=That's Why I'm Crying (Koko Taylor) [1974,from'IGotWhatItTakes
TTITLE4=']
TTITLE5=Double Eyed Whammy (Tinsley Ellis) [1988,from'GeorgiaBlue']
TTITLE6=I'm Free (Lucky Peterson) [1990,from'TriplePlay']
TTITLE7=These Blues Is Killing Me (A.C. Reed with Stevie Ray Vaughan) 
TTITLE7=[1987,from'I'mInTheWrongBusiness']
TTITLE8=Rain (Little Charlie and The Nightcats) [1991,from'CapturedLive'
TTITLE8=]
TTITLE9=Look But Don't Touch (Kenny Neal) [1991,from'NewRouteSampler6'
TTITLE9=]
TTITLE10=Fannie Mae (Elvin Bishop) [1991,from'Don'tLetTheBossmanGetYou
TTITLE10=Down']
TTITLE11=Serves Me Right To Suffer (Jimmy Johnson) [1978,from'LivingCh
TTITLE11=icagoBlues,Volume1']
TTITLE12=Leavin' (The Siegel-Schwall Band) [1971,from'TheSiegel-Schwal
TTITLE12=lBand']
TTITLE13=Born In Louisiana (Clarence 'Gatemouth' Brown) [1989,from'Sta
TTITLE13=ndingMyGround']
TTITLE14=Leaving Your Town (Charlie Musselwhite) [1990,from'AceOfHarps
TTITLE14=']
TTITLE15=Drowning On Dry Land (Roy Buchanan) [1986,from'DancingOnTheEd
TTITLE15=ge']
TTITLE16=If I Hadn't Been High (Detroit Junior) [1980,from'LivingChica
TTITLE16=goBlues,Volume6']
TTITLE17=Trouble In Mind (Big Walter Horton) [1973,from'BigWalterHorto
TTITLE17=nWithCareyBell']
EXTD=
EXTT0=
EXTT1=
EXTT2=
EXTT3=
EXTT4=
EXTT5=
EXTT6=
EXTT7=
EXTT8=
EXTT9=
EXTT10=
EXTT11=
EXTT12=
EXTT13=
EXTT14=
EXTT15=
EXTT16=
EXTT17=
PLAYORDER=
